<svg t="1745049430605" class="icon" viewBox="0 0 1024 1024" version="1.1" xmlns="http://www.w3.org/2000/svg" p-id="7241"
    width="200" height="200">
    <path
        d="M907.22807 116.77193H116.77193c-19.761404 0-35.929825 16.168421-35.929825 35.929824v610.807018c0 19.761404 16.168421 35.929825 35.929825 35.929824h790.45614c19.761404 0 35.929825-16.168421 35.929825-35.929824v-610.807018c0-19.761404-16.168421-35.929825-35.929825-35.929824z m-432.954386 138.329824h71.859649v161.684211h-71.859649v-161.684211zM512 661.108772c-113.178947 0-206.596491-91.621053-206.596491-206.596491 0-43.115789 12.575439-84.435088 37.726316-118.568421 21.557895-30.540351 50.301754-53.894737 84.435087-70.063158l28.74386 66.470175c-21.557895 8.982456-41.319298 25.150877-55.691228 44.912281-16.168421 23.354386-25.150877 48.505263-25.150877 77.249123 0 73.65614 59.284211 134.736842 134.736842 134.736842s134.736842-59.284211 134.736842-134.736842c0-26.947368-8.982456-53.894737-25.150877-77.249123-3.592982-5.389474-8.982456-10.778947-12.575439-16.168421-12.575439-12.575439-25.150877-21.557895-41.319298-28.74386l28.743859-64.673684c23.354386 10.778947 44.912281 25.150877 64.673685 44.912281 7.185965 7.185965 14.37193 16.168421 19.761403 25.150877 25.150877 34.133333 37.726316 75.452632 37.726316 118.568421 1.796491 113.178947-91.621053 204.8-204.8 204.8zM781.473684 835.368421H242.526316v71.859649h538.947368v-71.859649z"
        p-id="7242"></path>
</svg>