<svg t="1745049278014" class="icon" viewBox="0 0 1024 1024" version="1.1" xmlns="http://www.w3.org/2000/svg" p-id="5256"
    width="200" height="200">
    <path
        d="M685.2 793.5H331.7c-19.4 0-35.3 15.9-35.3 35.3s15.9 35.3 35.3 35.3h353.5c19.4 0 35.3-15.9 35.3-35.3 0.1-19.4-15.8-35.3-35.3-35.3zM773.4 201.1H243.5c-50 0-90.8 40.9-90.8 90.8v380.5c0 50 40.9 90.8 90.8 90.8h529.9c50 0 90.8-40.9 90.8-90.8V291.9c0.1-49.9-40.8-90.8-90.8-90.8zM605.6 497.5l-173 119.4c-12.4 8.5-29.2-0.3-29.2-15.3V362.8c0-15 16.8-23.9 29.2-15.3l173 119.4c10.7 7.4 10.7 23.2 0 30.6z"
        p-id="5257"></path>
</svg>